<mxfile host="app.diagrams.net" modified="2023-06-01T04:22:05.877Z" agent="5.0 (Windows NT 10.0; Win64; x64) AppleWebKit/537.36 (KHTML, like Gecko) Chrome/113.0.0.0 Safari/537.36" etag="Nxw9DyZ8y0Ei-c8Y7b9r" version="20.8.8" type="github">
  <diagram id="R2lEEEUBdFMjLlhIrx00" name="Page-1">
    <mxGraphModel dx="1042" dy="1320" grid="1" gridSize="10" guides="1" tooltips="1" connect="1" arrows="1" fold="1" page="1" pageScale="1" pageWidth="850" pageHeight="1100" math="0" shadow="0" extFonts="Permanent Marker^https://fonts.googleapis.com/css?family=Permanent+Marker">
      <root>
        <mxCell id="0" />
        <mxCell id="1" parent="0" />
        <mxCell id="c6gGLsN3Dh-3WzSBUubz-1" value="Film" style="whiteSpace=wrap;html=1;align=center;fontSize=16;" vertex="1" parent="1">
          <mxGeometry x="190" y="370" width="100" height="40" as="geometry" />
        </mxCell>
        <mxCell id="c6gGLsN3Dh-3WzSBUubz-36" style="edgeStyle=none;curved=1;rounded=0;orthogonalLoop=1;jettySize=auto;html=1;exitX=1;exitY=1;exitDx=0;exitDy=0;entryX=0.5;entryY=0;entryDx=0;entryDy=0;fontSize=12;startSize=8;endSize=8;" edge="1" parent="1" source="c6gGLsN3Dh-3WzSBUubz-2" target="c6gGLsN3Dh-3WzSBUubz-1">
          <mxGeometry relative="1" as="geometry" />
        </mxCell>
        <mxCell id="c6gGLsN3Dh-3WzSBUubz-2" value="sinopsis" style="ellipse;whiteSpace=wrap;html=1;align=center;fontSize=16;" vertex="1" parent="1">
          <mxGeometry x="50" y="220" width="100" height="40" as="geometry" />
        </mxCell>
        <mxCell id="c6gGLsN3Dh-3WzSBUubz-3" value="Relationship" style="shape=rhombus;perimeter=rhombusPerimeter;whiteSpace=wrap;html=1;align=center;fontSize=16;" vertex="1" parent="1">
          <mxGeometry x="380" y="540" width="120" height="60" as="geometry" />
        </mxCell>
        <mxCell id="c6gGLsN3Dh-3WzSBUubz-31" style="edgeStyle=none;curved=1;rounded=0;orthogonalLoop=1;jettySize=auto;html=1;exitX=1;exitY=0.5;exitDx=0;exitDy=0;entryX=0.5;entryY=0;entryDx=0;entryDy=0;fontSize=12;startSize=8;endSize=8;" edge="1" parent="1" source="c6gGLsN3Dh-3WzSBUubz-4" target="c6gGLsN3Dh-3WzSBUubz-1">
          <mxGeometry relative="1" as="geometry" />
        </mxCell>
        <mxCell id="c6gGLsN3Dh-3WzSBUubz-4" value="judul" style="ellipse;whiteSpace=wrap;html=1;align=center;fontSize=16;" vertex="1" parent="1">
          <mxGeometry x="20" y="280" width="100" height="40" as="geometry" />
        </mxCell>
        <mxCell id="c6gGLsN3Dh-3WzSBUubz-37" style="edgeStyle=none;curved=1;rounded=0;orthogonalLoop=1;jettySize=auto;html=1;exitX=1;exitY=1;exitDx=0;exitDy=0;entryX=0.5;entryY=0;entryDx=0;entryDy=0;fontSize=12;startSize=8;endSize=8;" edge="1" parent="1" source="c6gGLsN3Dh-3WzSBUubz-5" target="c6gGLsN3Dh-3WzSBUubz-1">
          <mxGeometry relative="1" as="geometry" />
        </mxCell>
        <mxCell id="c6gGLsN3Dh-3WzSBUubz-5" value="tahun_rillis" style="ellipse;whiteSpace=wrap;html=1;align=center;fontSize=16;" vertex="1" parent="1">
          <mxGeometry x="100" y="170" width="100" height="40" as="geometry" />
        </mxCell>
        <mxCell id="c6gGLsN3Dh-3WzSBUubz-38" style="edgeStyle=none;curved=1;rounded=0;orthogonalLoop=1;jettySize=auto;html=1;exitX=0.5;exitY=1;exitDx=0;exitDy=0;entryX=0.5;entryY=0;entryDx=0;entryDy=0;fontSize=12;startSize=8;endSize=8;" edge="1" parent="1" source="c6gGLsN3Dh-3WzSBUubz-6" target="c6gGLsN3Dh-3WzSBUubz-1">
          <mxGeometry relative="1" as="geometry" />
        </mxCell>
        <mxCell id="c6gGLsN3Dh-3WzSBUubz-6" value="durasi" style="ellipse;whiteSpace=wrap;html=1;align=center;fontSize=16;" vertex="1" parent="1">
          <mxGeometry x="170" y="130" width="100" height="40" as="geometry" />
        </mxCell>
        <mxCell id="c6gGLsN3Dh-3WzSBUubz-39" style="edgeStyle=none;curved=1;rounded=0;orthogonalLoop=1;jettySize=auto;html=1;exitX=0.5;exitY=1;exitDx=0;exitDy=0;entryX=0.5;entryY=0;entryDx=0;entryDy=0;fontSize=12;startSize=8;endSize=8;" edge="1" parent="1" source="c6gGLsN3Dh-3WzSBUubz-7" target="c6gGLsN3Dh-3WzSBUubz-1">
          <mxGeometry relative="1" as="geometry" />
        </mxCell>
        <mxCell id="c6gGLsN3Dh-3WzSBUubz-7" value="genre" style="ellipse;whiteSpace=wrap;html=1;align=center;fontSize=16;" vertex="1" parent="1">
          <mxGeometry x="250" y="170" width="100" height="40" as="geometry" />
        </mxCell>
        <mxCell id="c6gGLsN3Dh-3WzSBUubz-40" style="edgeStyle=none;curved=1;rounded=0;orthogonalLoop=1;jettySize=auto;html=1;exitX=0;exitY=1;exitDx=0;exitDy=0;entryX=0.5;entryY=0;entryDx=0;entryDy=0;fontSize=12;startSize=8;endSize=8;" edge="1" parent="1" source="c6gGLsN3Dh-3WzSBUubz-8" target="c6gGLsN3Dh-3WzSBUubz-1">
          <mxGeometry relative="1" as="geometry" />
        </mxCell>
        <mxCell id="c6gGLsN3Dh-3WzSBUubz-8" value="sutradara" style="ellipse;whiteSpace=wrap;html=1;align=center;fontSize=16;" vertex="1" parent="1">
          <mxGeometry x="320" y="210" width="100" height="40" as="geometry" />
        </mxCell>
        <mxCell id="c6gGLsN3Dh-3WzSBUubz-41" style="edgeStyle=none;curved=1;rounded=0;orthogonalLoop=1;jettySize=auto;html=1;exitX=0;exitY=0.5;exitDx=0;exitDy=0;entryX=0.5;entryY=0;entryDx=0;entryDy=0;fontSize=12;startSize=8;endSize=8;" edge="1" parent="1" source="c6gGLsN3Dh-3WzSBUubz-9" target="c6gGLsN3Dh-3WzSBUubz-1">
          <mxGeometry relative="1" as="geometry" />
        </mxCell>
        <mxCell id="c6gGLsN3Dh-3WzSBUubz-9" value="negara_asal" style="ellipse;whiteSpace=wrap;html=1;align=center;fontSize=16;" vertex="1" parent="1">
          <mxGeometry x="340" y="260" width="100" height="40" as="geometry" />
        </mxCell>
        <mxCell id="c6gGLsN3Dh-3WzSBUubz-42" style="edgeStyle=none;curved=1;rounded=0;orthogonalLoop=1;jettySize=auto;html=1;exitX=0;exitY=0.5;exitDx=0;exitDy=0;entryX=0.5;entryY=0;entryDx=0;entryDy=0;fontSize=12;startSize=8;endSize=8;" edge="1" parent="1" source="c6gGLsN3Dh-3WzSBUubz-10" target="c6gGLsN3Dh-3WzSBUubz-1">
          <mxGeometry relative="1" as="geometry" />
        </mxCell>
        <mxCell id="c6gGLsN3Dh-3WzSBUubz-10" value="bahasa" style="ellipse;whiteSpace=wrap;html=1;align=center;fontSize=16;" vertex="1" parent="1">
          <mxGeometry x="390" y="300" width="100" height="40" as="geometry" />
        </mxCell>
        <mxCell id="c6gGLsN3Dh-3WzSBUubz-43" value="" style="edgeStyle=none;curved=1;rounded=0;orthogonalLoop=1;jettySize=auto;html=1;fontSize=12;startSize=8;endSize=8;" edge="1" parent="1" source="c6gGLsN3Dh-3WzSBUubz-11" target="c6gGLsN3Dh-3WzSBUubz-1">
          <mxGeometry relative="1" as="geometry" />
        </mxCell>
        <mxCell id="c6gGLsN3Dh-3WzSBUubz-11" value="rating" style="ellipse;whiteSpace=wrap;html=1;align=center;fontSize=16;" vertex="1" parent="1">
          <mxGeometry x="425" y="360" width="100" height="40" as="geometry" />
        </mxCell>
        <mxCell id="c6gGLsN3Dh-3WzSBUubz-12" value="produksi" style="whiteSpace=wrap;html=1;align=center;fontSize=16;" vertex="1" parent="1">
          <mxGeometry x="60" y="590" width="100" height="40" as="geometry" />
        </mxCell>
        <mxCell id="c6gGLsN3Dh-3WzSBUubz-44" style="edgeStyle=none;curved=1;rounded=0;orthogonalLoop=1;jettySize=auto;html=1;exitX=0.5;exitY=1;exitDx=0;exitDy=0;entryX=0.5;entryY=0;entryDx=0;entryDy=0;fontSize=12;startSize=8;endSize=8;" edge="1" parent="1" source="c6gGLsN3Dh-3WzSBUubz-13" target="c6gGLsN3Dh-3WzSBUubz-12">
          <mxGeometry relative="1" as="geometry" />
        </mxCell>
        <mxCell id="c6gGLsN3Dh-3WzSBUubz-13" value="nama_studio" style="ellipse;whiteSpace=wrap;html=1;align=center;fontSize=16;" vertex="1" parent="1">
          <mxGeometry x="20" y="520" width="100" height="40" as="geometry" />
        </mxCell>
        <mxCell id="c6gGLsN3Dh-3WzSBUubz-45" style="edgeStyle=none;curved=1;rounded=0;orthogonalLoop=1;jettySize=auto;html=1;exitX=1;exitY=0;exitDx=0;exitDy=0;entryX=0.5;entryY=1;entryDx=0;entryDy=0;fontSize=12;startSize=8;endSize=8;" edge="1" parent="1" source="c6gGLsN3Dh-3WzSBUubz-15" target="c6gGLsN3Dh-3WzSBUubz-12">
          <mxGeometry relative="1" as="geometry" />
        </mxCell>
        <mxCell id="c6gGLsN3Dh-3WzSBUubz-15" value="tahun_produksi" style="ellipse;whiteSpace=wrap;html=1;align=center;fontSize=16;" vertex="1" parent="1">
          <mxGeometry x="10" y="660" width="100" height="40" as="geometry" />
        </mxCell>
        <mxCell id="c6gGLsN3Dh-3WzSBUubz-16" value="ulasan" style="whiteSpace=wrap;html=1;align=center;fontSize=16;" vertex="1" parent="1">
          <mxGeometry x="290" y="820" width="100" height="40" as="geometry" />
        </mxCell>
        <mxCell id="c6gGLsN3Dh-3WzSBUubz-28" style="edgeStyle=none;curved=1;rounded=0;orthogonalLoop=1;jettySize=auto;html=1;exitX=0;exitY=0;exitDx=0;exitDy=0;entryX=0.5;entryY=1;entryDx=0;entryDy=0;fontSize=12;startSize=8;endSize=8;" edge="1" parent="1" source="c6gGLsN3Dh-3WzSBUubz-17" target="c6gGLsN3Dh-3WzSBUubz-16">
          <mxGeometry relative="1" as="geometry" />
        </mxCell>
        <mxCell id="c6gGLsN3Dh-3WzSBUubz-17" value="nama_reviewer" style="ellipse;whiteSpace=wrap;html=1;align=center;fontSize=16;" vertex="1" parent="1">
          <mxGeometry x="455" y="920" width="100" height="40" as="geometry" />
        </mxCell>
        <mxCell id="c6gGLsN3Dh-3WzSBUubz-29" style="edgeStyle=none;curved=1;rounded=0;orthogonalLoop=1;jettySize=auto;html=1;exitX=0.5;exitY=0;exitDx=0;exitDy=0;fontSize=12;startSize=8;endSize=8;" edge="1" parent="1" source="c6gGLsN3Dh-3WzSBUubz-18">
          <mxGeometry relative="1" as="geometry">
            <mxPoint x="340" y="860" as="targetPoint" />
          </mxGeometry>
        </mxCell>
        <mxCell id="c6gGLsN3Dh-3WzSBUubz-18" value="isi_ulasan" style="ellipse;whiteSpace=wrap;html=1;align=center;fontSize=16;" vertex="1" parent="1">
          <mxGeometry x="290" y="970" width="100" height="40" as="geometry" />
        </mxCell>
        <mxCell id="c6gGLsN3Dh-3WzSBUubz-30" style="edgeStyle=none;curved=1;rounded=0;orthogonalLoop=1;jettySize=auto;html=1;exitX=0.5;exitY=0;exitDx=0;exitDy=0;fontSize=12;startSize=8;endSize=8;" edge="1" parent="1" source="c6gGLsN3Dh-3WzSBUubz-19">
          <mxGeometry relative="1" as="geometry">
            <mxPoint x="340" y="860" as="targetPoint" />
          </mxGeometry>
        </mxCell>
        <mxCell id="c6gGLsN3Dh-3WzSBUubz-19" value="rating" style="ellipse;whiteSpace=wrap;html=1;align=center;fontSize=16;" vertex="1" parent="1">
          <mxGeometry x="170" y="940" width="100" height="40" as="geometry" />
        </mxCell>
        <mxCell id="c6gGLsN3Dh-3WzSBUubz-20" value="kategori" style="whiteSpace=wrap;html=1;align=center;fontSize=16;" vertex="1" parent="1">
          <mxGeometry x="610" y="510" width="100" height="40" as="geometry" />
        </mxCell>
        <mxCell id="c6gGLsN3Dh-3WzSBUubz-26" style="edgeStyle=none;curved=1;rounded=0;orthogonalLoop=1;jettySize=auto;html=1;exitX=0;exitY=1;exitDx=0;exitDy=0;entryX=0.75;entryY=0;entryDx=0;entryDy=0;fontSize=12;startSize=8;endSize=8;" edge="1" parent="1" source="c6gGLsN3Dh-3WzSBUubz-21" target="c6gGLsN3Dh-3WzSBUubz-20">
          <mxGeometry relative="1" as="geometry" />
        </mxCell>
        <mxCell id="c6gGLsN3Dh-3WzSBUubz-21" value="nama_kategori" style="ellipse;whiteSpace=wrap;html=1;align=center;fontSize=16;" vertex="1" parent="1">
          <mxGeometry x="690" y="450" width="100" height="40" as="geometry" />
        </mxCell>
        <mxCell id="c6gGLsN3Dh-3WzSBUubz-27" style="edgeStyle=none;curved=1;rounded=0;orthogonalLoop=1;jettySize=auto;html=1;exitX=0;exitY=0;exitDx=0;exitDy=0;entryX=0.5;entryY=1;entryDx=0;entryDy=0;fontSize=12;startSize=8;endSize=8;" edge="1" parent="1" source="c6gGLsN3Dh-3WzSBUubz-22" target="c6gGLsN3Dh-3WzSBUubz-20">
          <mxGeometry relative="1" as="geometry" />
        </mxCell>
        <mxCell id="c6gGLsN3Dh-3WzSBUubz-22" value="deskripsi" style="ellipse;whiteSpace=wrap;html=1;align=center;fontSize=16;" vertex="1" parent="1">
          <mxGeometry x="700" y="590" width="100" height="40" as="geometry" />
        </mxCell>
        <mxCell id="c6gGLsN3Dh-3WzSBUubz-53" style="edgeStyle=none;curved=1;rounded=0;orthogonalLoop=1;jettySize=auto;html=1;exitX=1;exitY=0.5;exitDx=0;exitDy=0;entryX=0.5;entryY=0;entryDx=0;entryDy=0;fontSize=12;startSize=8;endSize=8;" edge="1" parent="1" source="c6gGLsN3Dh-3WzSBUubz-46" target="c6gGLsN3Dh-3WzSBUubz-1">
          <mxGeometry relative="1" as="geometry" />
        </mxCell>
        <mxCell id="c6gGLsN3Dh-3WzSBUubz-46" value="id_film" style="ellipse;whiteSpace=wrap;html=1;align=center;fontStyle=4;fontSize=16;" vertex="1" parent="1">
          <mxGeometry x="20" y="340" width="100" height="40" as="geometry" />
        </mxCell>
        <mxCell id="c6gGLsN3Dh-3WzSBUubz-52" style="edgeStyle=none;curved=1;rounded=0;orthogonalLoop=1;jettySize=auto;html=1;exitX=0;exitY=1;exitDx=0;exitDy=0;entryX=0.5;entryY=0;entryDx=0;entryDy=0;fontSize=12;startSize=8;endSize=8;" edge="1" parent="1" source="c6gGLsN3Dh-3WzSBUubz-47" target="c6gGLsN3Dh-3WzSBUubz-12">
          <mxGeometry relative="1" as="geometry" />
        </mxCell>
        <mxCell id="c6gGLsN3Dh-3WzSBUubz-47" value="id_studio" style="ellipse;whiteSpace=wrap;html=1;align=center;fontStyle=4;fontSize=16;" vertex="1" parent="1">
          <mxGeometry x="130" y="520" width="100" height="40" as="geometry" />
        </mxCell>
        <mxCell id="c6gGLsN3Dh-3WzSBUubz-54" style="edgeStyle=none;curved=1;rounded=0;orthogonalLoop=1;jettySize=auto;html=1;exitX=1;exitY=0.5;exitDx=0;exitDy=0;entryX=0.5;entryY=1;entryDx=0;entryDy=0;fontSize=12;startSize=8;endSize=8;" edge="1" parent="1" source="c6gGLsN3Dh-3WzSBUubz-48" target="c6gGLsN3Dh-3WzSBUubz-16">
          <mxGeometry relative="1" as="geometry" />
        </mxCell>
        <mxCell id="c6gGLsN3Dh-3WzSBUubz-48" value="id_ulasan" style="ellipse;whiteSpace=wrap;html=1;align=center;fontStyle=4;fontSize=16;" vertex="1" parent="1">
          <mxGeometry x="80" y="880" width="100" height="40" as="geometry" />
        </mxCell>
        <mxCell id="c6gGLsN3Dh-3WzSBUubz-51" style="edgeStyle=none;curved=1;rounded=0;orthogonalLoop=1;jettySize=auto;html=1;exitX=0.5;exitY=0;exitDx=0;exitDy=0;entryX=0.5;entryY=1;entryDx=0;entryDy=0;fontSize=12;startSize=8;endSize=8;" edge="1" parent="1" source="c6gGLsN3Dh-3WzSBUubz-49" target="c6gGLsN3Dh-3WzSBUubz-20">
          <mxGeometry relative="1" as="geometry" />
        </mxCell>
        <mxCell id="c6gGLsN3Dh-3WzSBUubz-49" value="id_kategori" style="ellipse;whiteSpace=wrap;html=1;align=center;fontStyle=4;fontSize=16;" vertex="1" parent="1">
          <mxGeometry x="590" y="620" width="100" height="40" as="geometry" />
        </mxCell>
      </root>
    </mxGraphModel>
  </diagram>
</mxfile>
